<svg xmlns="http://www.w3.org/2000/svg" version="1.0" width="720.000000pt" height="405.000000pt" viewBox="0 0 720.000000 405.000000" preserveAspectRatio="xMidYMid meet">
<metadata fill="#ffffff">
Created by potrace 1.16, written by Peter Selinger 2001-2019
</metadata>
<g transform="translate(0.000000,405.000000) scale(0.100000,-0.100000)" fill="#ffffff" stroke="none">
<path d="M4795 3602 c-108 -52 -173 -153 -147 -226 20 -54 26 -149 12 -191 -12 -36 -11 -40 11 -57 12 -11 32 -42 43 -70 12 -28 34 -60 49 -72 27 -20 29 -20 74 -4 26 9 50 15 55 12 28 -17 -13 -69 -81 -104 -53 -26 -91 -74 -91 -113 -1 -134 -33 -381 -50 -392 -6 -4 -116 68 -179 117 -13 10 -31 18 -40 18 -9 0 -33 20 -53 44 -30 35 -52 49 -112 71 -41 15 -79 24 -85 20 -20 -12 -12 -43 17 -64 34 -25 24 -26 -59 -2 l-66 19 -48 -30 c-27 -17 -91 -69 -144 -116 -101 -90 -151 -118 -224 -128 -42 -6 -70 6 -47 21 5 3 10 26 10 51 0 56 -28 89 -68 79 -59 -14 -72 -88 -25 -138 l28 -28 -25 -20 c-14 -11 -50 -32 -80 -47 -48 -24 -67 -27 -150 -27 -128 0 -221 25 -238 64 -11 25 -8 39 37 145 37 87 46 118 37 122 -22 8 -148 -54 -187 -92 -26 -25 -39 -32 -44 -24 -11 19 -122 66 -188 80 -31 7 -61 18 -65 24 -5 6 -14 38 -21 71 -20 99 -63 177 -124 222 -28 22 -67 48 -84 59 -41 23 -43 44 -4 44 42 0 84 40 116 112 25 53 30 83 38 198 8 106 14 140 28 159 13 15 19 40 19 71 0 51 -8 60 -59 60 -15 0 -61 11 -102 25 -132 46 -250 29 -296 -42 -10 -15 -34 -42 -53 -59 -34 -31 -35 -35 -34 -101 1 -48 11 -96 34 -165 51 -152 36 -185 -119 -265 -120 -62 -162 -99 -207 -181 l-37 -67 -214 3 c-359 5 -520 -28 -575 -116 -36 -58 -31 -248 16 -554 97 -631 168 -846 317 -957 l45 -33 -33 -162 c-19 -88 -36 -178 -40 -198 -3 -21 -11 -42 -17 -47 -6 -5 -282 -12 -639 -17 -503 -5 -627 -9 -627 -20 0 -10 120 -12 642 -8 718 6 661 -1 673 82 5 41 66 354 69 359 4 6 76 -24 76 -32 0 -23 -94 -303 -116 -347 -25 -49 -31 -84 -14 -73 30 18 116 237 149 380 5 21 13 30 27 29 10 -1 100 -22 199 -47 99 -26 221 -54 271 -63 l91 -16 6 -244 c3 -171 9 -249 17 -259 15 -19 54 -19 69 -2 10 13 31 157 54 382 l12 120 75 13 c79 13 461 88 495 98 16 4 25 -5 44 -40 32 -62 42 -236 17 -309 -19 -57 -20 -103 -3 -137 15 -29 165 -85 267 -99 36 -5 101 -18 144 -30 44 -11 103 -21 132 -21 62 0 130 24 144 51 29 53 -4 97 -127 169 -40 23 -93 60 -117 82 -37 32 -52 39 -78 36 -27 -2 -36 -10 -51 -40 -21 -42 -48 -49 -79 -21 -17 15 -15 18 53 50 92 45 98 59 65 147 -21 54 -26 86 -26 155 0 87 0 87 36 122 80 77 129 196 178 427 69 325 55 476 -47 528 -48 25 -81 33 -225 53 -74 11 -136 22 -139 25 -3 3 14 25 38 48 24 24 49 51 54 61 10 17 14 17 100 -3 109 -24 184 -25 255 -4 53 16 151 71 164 93 4 6 35 11 69 11 87 0 141 29 265 139 57 50 106 91 109 91 2 0 28 -20 57 -45 70 -60 117 -79 174 -70 56 8 127 -19 116 -44 -17 -43 -14 -47 91 -125 58 -44 104 -81 102 -82 -2 -2 -37 0 -78 6 -113 14 -206 13 -212 -4 -6 -14 13 -35 48 -54 16 -8 9 -11 -40 -16 -215 -23 -275 -61 -290 -182 -13 -103 46 -454 83 -491 14 -13 12 -21 -16 -73 -37 -67 -39 -86 -12 -115 l19 -21 -44 -57 c-51 -64 -159 -157 -214 -183 -19 -9 -63 -20 -96 -23 -70 -8 -85 -15 -85 -41 0 -27 57 -70 137 -102 92 -37 127 -36 212 9 39 20 74 34 77 30 4 -3 -1 -24 -10 -47 -22 -55 -20 -70 7 -70 18 0 38 21 88 93 l64 92 -2 83 c-3 98 5 121 41 115 21 -4 30 3 63 53 20 33 50 82 66 109 l28 50 -5 -80 c-3 -44 -8 -138 -11 -210 -3 -71 -8 -149 -11 -172 -5 -41 12 -73 44 -84 21 -7 -15 -135 -63 -228 -33 -64 -59 -100 -95 -130 -83 -70 -78 -121 11 -121 68 0 143 18 180 43 18 12 48 51 68 87 26 48 37 60 39 45 12 -67 24 -95 41 -95 24 0 25 3 47 139 l18 114 -27 49 c-32 56 -33 67 -10 83 12 9 20 44 30 141 8 71 16 130 18 132 2 3 21 -2 43 -11 35 -14 212 -47 338 -62 l52 -7 6 -71 c17 -177 57 -471 67 -488 11 -22 51 -25 68 -6 7 9 12 106 13 288 l3 273 90 17 c50 9 161 33 248 54 87 20 160 35 162 33 1 -2 30 -86 64 -189 34 -102 68 -195 77 -208 12 -16 24 -21 47 -19 30 3 32 5 31 43 0 22 -18 130 -40 239 -33 169 -36 200 -24 204 29 9 106 98 134 157 80 165 151 463 210 875 41 286 41 413 0 475 -22 34 -104 72 -199 92 -59 12 -129 17 -270 17 -211 -1 -264 -8 -281 -42 -10 -21 -12 -19 -17 23 -14 96 -61 153 -196 233 -92 54 -171 116 -171 133 0 5 13 9 29 9 42 0 81 17 114 48 43 40 57 75 57 137 0 49 -4 60 -34 92 -28 30 -40 37 -70 36 -34 -1 -38 2 -58 45 -48 101 -130 154 -248 160 -66 3 -82 0 -135 -26z m194 -8 c108 -32 197 -151 173 -232 -6 -20 -14 -66 -18 -102 -4 -36 -11 -75 -15 -88 -9 -23 -10 -23 -38 -6 -28 16 -29 21 -24 63 4 37 1 51 -15 71 -19 23 -23 24 -54 12 -31 -12 -34 -11 -53 15 -79 109 -170 166 -231 143 -37 -14 -31 10 14 52 41 40 69 56 127 74 54 17 72 17 134 -2z m-2507 -60 c39 -13 84 -24 100 -24 40 0 38 -34 -4 -60 -40 -24 -90 -25 -149 -4 -147 52 -277 -18 -280 -152 l-1 -49 -13 40 c-8 22 -14 60 -14 84 -1 40 3 48 44 85 25 23 45 47 45 54 0 15 43 43 83 53 44 11 104 2 189 -27z m-67 -116 l40 -12 -43 -6 c-44 -7 -62 -21 -62 -51 0 -9 -13 -28 -30 -42 -16 -15 -30 -34 -30 -42 0 -8 -4 -15 -10 -15 -5 0 -10 6 -10 14 0 42 -72 45 -84 4 -11 -36 -19 -3 -11 47 4 30 16 54 35 73 50 50 109 59 205 30z m2452 -114 l108 -53 22 21 c27 25 43 16 43 -23 0 -20 -10 -39 -28 -57 -16 -15 -35 -42 -42 -60 -20 -50 -127 -132 -173 -132 -21 0 -44 30 -58 78 -7 24 -23 52 -36 62 -20 16 -22 22 -12 47 6 17 8 57 4 105 -4 42 -4 86 0 98 7 22 7 22 36 -6 16 -15 77 -51 136 -80z m406 76 c74 -58 47 -179 -50 -229 -48 -24 -54 -15 -26 45 21 47 25 67 21 125 -3 63 0 75 23 78 4 1 18 -8 32 -19z m-2708 -129 c-8 -129 -28 -196 -73 -251 -24 -28 -35 -34 -66 -33 -42 1 -108 39 -147 86 -14 16 -29 26 -32 20 -12 -19 33 -73 83 -100 44 -25 50 -32 50 -60 0 -39 -30 -73 -63 -73 -37 0 -108 44 -141 89 l-32 43 23 46 c13 25 23 56 23 70 0 13 9 31 21 41 19 15 20 21 10 56 -15 54 -14 85 3 85 7 0 19 -14 26 -31 15 -35 52 -38 58 -4 2 11 17 34 32 50 16 17 33 42 39 58 11 27 11 27 102 26 l91 -1 -7 -117z m2480 -111 c10 -11 26 -22 36 -25 9 -3 26 -23 37 -43 l20 -38 -53 -164 c-47 -150 -55 -167 -83 -183 -24 -14 -35 -16 -52 -7 -19 10 -20 17 -14 138 5 102 4 134 -9 163 l-15 37 39 38 c21 21 44 53 50 71 12 38 19 40 44 13z m143 -132 c8 -8 12 -45 12 -100 l0 -88 -34 -14 c-47 -20 -50 -30 -19 -67 l27 -32 -33 -61 c-19 -33 -61 -113 -94 -176 l-60 -115 7 55 c10 88 52 240 157 573 13 40 18 44 37 25z m137 -85 c43 -27 80 -53 82 -59 2 -6 -10 -17 -27 -24 -90 -37 -130 -168 -130 -426 0 -111 -3 -144 -14 -153 -23 -19 -308 -71 -387 -71 -22 0 -49 5 -60 11 -28 14 -190 30 -203 19 -7 -5 -23 1 -41 17 -16 13 -55 43 -85 65 -30 23 -57 43 -59 45 -2 1 3 11 12 21 9 10 26 39 37 65 l21 47 62 -45 c68 -49 189 -125 200 -125 15 0 6 28 -12 41 -18 13 -19 18 -6 79 8 36 19 135 24 220 l10 155 37 33 c41 35 60 41 49 15 -17 -41 -17 -64 0 -84 18 -19 18 -20 -10 -49 l-29 -30 13 -137 c11 -134 21 -198 42 -295 10 -42 13 -47 38 -46 l27 1 -4 168 c-3 92 -1 192 2 223 7 52 9 55 27 45 14 -7 29 -7 50 0 26 9 29 8 25 -7 -32 -103 -66 -294 -66 -368 0 -80 20 -68 54 31 16 47 67 154 113 237 45 83 83 158 83 166 0 9 -10 26 -21 38 l-21 23 36 15 36 15 0 85 c0 48 4 86 8 86 5 0 44 -21 87 -47z m-3177 -42 c53 -44 90 -64 145 -79 53 -15 82 -2 97 42 6 20 15 36 19 36 14 0 104 -64 137 -97 36 -36 70 -117 80 -192 5 -42 4 -51 -9 -51 -8 0 -22 -3 -31 -6 -12 -5 -16 6 -18 63 -5 106 -22 76 -29 -49 -5 -99 -9 -121 -36 -180 -21 -45 -39 -68 -55 -73 -12 -5 -51 -35 -85 -67 l-62 -60 -68 7 c-160 15 -253 28 -253 36 0 5 9 82 21 171 31 243 16 377 -47 427 -20 16 -22 20 -9 31 18 15 138 79 148 80 5 0 29 -17 55 -39z m2750 -156 c-7 -55 -13 -187 -13 -292 0 -106 -3 -180 -7 -165 -13 47 -37 223 -44 322 -6 93 -6 95 20 119 30 28 34 58 9 76 -16 12 -16 17 12 76 l30 62 3 -49 c2 -27 -2 -94 -10 -149z m552 85 c32 0 49 -275 31 -468 -20 -204 -41 -245 -139 -282 -80 -30 -253 -48 -295 -31 -18 7 -51 18 -74 24 -37 9 -42 14 -48 46 -3 20 -8 43 -11 52 -4 13 11 18 88 28 106 14 248 47 262 61 5 5 10 80 11 167 3 166 20 278 53 342 19 37 77 75 100 66 8 -3 18 -5 22 -5z m-3501 -35 c42 -55 51 -170 26 -375 -23 -193 -22 -190 -51 -190 -33 0 -84 -27 -84 -45 0 -25 20 -28 68 -9 42 16 58 16 182 5 202 -18 186 -11 193 -84 3 -37 2 -64 -5 -68 -26 -16 -196 -31 -301 -27 -145 7 -166 16 -192 88 -18 49 -20 80 -20 270 0 177 4 227 19 280 24 88 51 133 95 158 46 27 46 27 70 -3z m4145 -74 c91 -24 130 -45 159 -84 18 -23 21 -41 20 -130 -3 -278 -117 -893 -206 -1111 -80 -196 -124 -228 -419 -302 -76 -19 -190 -45 -253 -58 l-115 -23 40 43 c109 118 206 343 245 568 27 160 16 264 -36 316 -36 35 -43 32 151 60 248 35 291 57 372 190 25 41 65 161 97 288 44 173 45 182 28 182 -10 0 -22 -35 -42 -117 -31 -132 -77 -278 -107 -336 -32 -64 -85 -115 -142 -136 -43 -16 -235 -51 -280 -51 -9 0 -25 43 -46 128 -28 107 -34 150 -37 277 -4 111 -1 169 10 223 9 41 18 76 20 78 13 14 151 22 297 19 126 -3 184 -9 244 -24z m-4342 -61 c-34 -147 -55 -287 -59 -401 -5 -122 -3 -140 15 -182 15 -33 31 -51 56 -63 19 -9 37 -26 40 -37 4 -18 1 -19 -37 -13 -23 4 -91 11 -152 16 -279 24 -287 31 -405 345 -29 77 -62 158 -72 180 -45 90 -93 110 -128 53 -11 -18 -20 -26 -20 -18 0 40 39 78 102 99 95 31 181 39 433 37 199 -1 230 -3 227 -16z m2635 -107 c47 -53 49 -60 29 -88 -13 -19 -15 -19 -54 -1 -30 14 -52 17 -90 11 -62 -8 -101 8 -164 68 -39 37 -41 41 -22 45 12 2 49 -4 82 -12 76 -20 106 -20 123 0 12 15 11 18 -4 28 -48 29 -47 35 3 16 39 -14 67 -33 97 -67z m-3285 -48 c15 -28 48 -106 74 -175 131 -347 140 -354 456 -380 205 -17 266 -45 320 -147 14 -26 63 -139 108 -251 99 -243 131 -299 185 -329 62 -34 161 -45 290 -34 143 13 157 6 153 -77 -3 -51 -6 -58 -34 -74 -43 -25 -198 -63 -336 -84 -189 -28 -318 -10 -688 92 -287 80 -318 99 -379 237 -67 151 -158 561 -216 974 -29 213 -30 234 -9 274 21 42 43 34 76 -26z m1657 -39 c74 -25 136 -48 138 -50 3 -2 -25 -70 -62 -150 -36 -81 -79 -179 -95 -219 -22 -56 -33 -71 -47 -69 -10 2 -65 13 -123 26 l-105 22 54 19 c38 12 70 33 103 66 43 43 47 51 42 81 -10 52 -24 58 -107 42 -39 -8 -77 -14 -84 -14 -12 0 17 75 89 233 23 50 36 67 47 63 9 -2 76 -25 150 -50z m314 -46 c-32 -79 -43 -95 -69 -106 -39 -16 -69 -86 -60 -142 4 -23 1 -43 -7 -52 -18 -22 -99 -90 -108 -90 -6 0 61 163 149 363 14 31 120 132 130 122 1 -1 -14 -44 -35 -95z m-2053 -245 c35 -251 92 -529 150 -735 73 -257 119 -315 298 -374 217 -72 500 -139 643 -151 89 -8 216 6 376 41 199 44 233 66 233 154 0 61 -17 96 -55 110 -13 5 -68 4 -130 -1 -193 -18 -287 10 -338 100 -28 49 -147 325 -147 339 0 4 12 -8 26 -26 56 -71 164 -101 369 -102 61 -1 126 -6 145 -13 41 -14 65 -57 74 -132 l5 -50 -17 49 c-23 62 -47 81 -130 100 -132 30 -402 47 -402 26 0 -14 28 -18 165 -25 122 -6 287 -36 311 -56 7 -6 23 -41 35 -77 26 -82 39 -98 40 -52 0 31 2 28 18 -25 21 -72 52 -147 86 -215 19 -37 22 -51 13 -54 -61 -20 -425 -92 -509 -101 -31 -4 -61 -10 -67 -14 -7 -4 -22 -101 -37 -231 -29 -262 -32 -280 -49 -280 -16 0 -26 132 -26 346 0 109 -3 154 -12 161 -7 6 -58 18 -113 28 -212 37 -521 122 -612 169 -132 66 -204 219 -278 591 -49 247 -122 779 -101 730 3 -5 19 -109 36 -230z m1419 72 c-20 -45 -6 -61 49 -53 143 20 142 20 142 -4 0 -32 -36 -78 -79 -99 -34 -18 -118 -37 -184 -43 -62 -6 -20 -25 128 -58 86 -19 152 -36 147 -38 -5 -1 -27 1 -50 6 -34 8 -50 5 -99 -15 -32 -13 -103 -30 -159 -37 -194 -27 -294 -71 -312 -138 -8 -30 -8 -30 -35 30 -26 55 -44 76 -139 157 -26 21 -23 39 5 31 12 -4 74 -9 137 -13 119 -6 288 15 317 39 9 7 11 28 7 77 l-6 66 66 64 c69 65 85 73 65 28z m3121 -220 c0 -4 -6 -10 -12 -12 -94 -32 -132 -51 -162 -80 -20 -19 -43 -38 -50 -42 -7 -5 -23 -27 -35 -50 -12 -24 -23 -43 -25 -43 -2 0 -20 25 -40 56 -21 31 -56 76 -78 100 -35 38 -47 44 -82 45 -22 1 12 7 76 14 228 25 300 64 334 182 l17 58 28 -110 c16 -61 29 -114 29 -118z m-790 168 c23 -8 59 -15 80 -15 36 0 38 -2 42 -37 3 -21 3 -40 1 -43 -3 -3 -91 -4 -196 -3 -271 3 -272 2 -389 -218 -39 -74 -102 -194 -140 -267 -37 -73 -70 -127 -73 -120 -22 63 -58 299 -59 383 -2 177 28 199 293 222 91 8 168 16 171 19 8 8 -23 24 -50 25 -14 0 -47 9 -75 20 l-50 19 80 -5 c312 -19 315 -19 315 -1 0 11 -9 16 -27 16 -16 0 -35 5 -43 10 -25 16 72 12 120 -5z m-1628 -130 c191 -25 238 -50 259 -137 29 -125 -43 -530 -126 -703 -18 -38 -45 -81 -59 -94 l-26 -24 0 24 c0 13 7 83 15 154 18 163 19 347 1 398 -40 111 -131 163 -411 232 -117 29 -125 32 -78 33 55 0 81 14 198 111 41 34 50 38 78 30 18 -4 84 -15 149 -24z m1619 -20 c52 -14 153 -39 224 -56 120 -28 133 -33 164 -67 47 -51 111 -151 111 -173 0 -11 -12 -49 -27 -85 -22 -56 -32 -69 -61 -81 -70 -29 -171 6 -347 121 -187 123 -227 135 -312 97 -60 -28 -72 -59 -88 -224 -7 -79 -21 -160 -30 -182 -19 -44 -124 -225 -131 -225 -31 0 -194 117 -194 138 0 9 27 62 60 117 33 55 80 150 105 210 62 149 144 320 176 365 15 20 42 44 60 53 52 26 177 22 290 -8z m-2021 -146 c236 -55 359 -106 408 -169 32 -43 42 -89 42 -206 0 -89 -30 -446 -43 -514 -4 -20 -140 396 -162 493 -15 70 -22 84 -77 148 -50 58 -74 76 -142 109 -44 21 -138 56 -208 77 -71 21 -128 40 -128 43 0 3 26 17 58 32 65 30 68 30 252 -13z m2755 35 c45 -18 66 -149 46 -281 -41 -262 -173 -543 -287 -614 -34 -20 -44 -21 -143 -15 -172 10 -367 47 -402 75 l-22 18 16 130 c10 72 17 148 17 170 0 22 5 54 11 71 12 36 30 43 167 68 79 14 100 14 140 3 62 -17 136 -15 167 5 14 9 25 12 25 7 0 -6 -18 -51 -39 -100 -76 -175 -93 -187 -266 -177 -66 3 -135 9 -154 12 -26 5 -33 4 -29 -7 6 -19 111 -37 218 -38 99 -1 154 19 189 68 31 43 82 158 126 281 47 135 112 279 138 308 20 22 50 28 82 16z m-3111 -68 c6 -7 56 -25 111 -41 144 -39 273 -91 327 -130 67 -49 102 -130 252 -580 l127 -379 -23 -18 c-40 -31 -108 -53 -127 -41 -31 19 -183 258 -246 388 -61 123 -99 236 -124 369 -19 105 -41 116 -265 127 -191 9 -225 16 -283 58 -40 29 -83 100 -83 137 0 45 55 75 190 104 104 23 130 24 144 6z m2261 -86 c15 -6 87 -50 162 -98 151 -98 150 -85 10 -112 -38 -8 -69 -21 -88 -38 -27 -26 -29 -34 -43 -167 -8 -77 -25 -231 -38 -342 l-23 -203 -52 0 c-56 0 -150 17 -157 29 -3 4 4 156 14 338 22 393 44 513 108 586 17 19 66 22 107 7z m-466 -600 c20 -14 22 -20 12 -38 -6 -11 -11 -36 -11 -54 -1 -30 -7 -37 -69 -75 -133 -83 -199 -100 -261 -68 -17 9 -30 18 -30 20 0 2 14 11 30 20 49 25 167 132 211 190 41 55 41 55 68 39 15 -9 38 -24 50 -34z m1711 -57 c0 -5 18 -98 40 -208 22 -110 40 -203 40 -207 0 -5 -6 -8 -14 -8 -7 0 -23 21 -34 48 -22 52 -112 332 -112 349 0 5 15 15 33 21 41 13 47 14 47 5z m-1700 -130 c0 -24 -98 -188 -107 -179 -3 2 0 13 6 24 6 12 11 32 11 46 0 37 -38 34 -117 -9 -35 -19 -76 -35 -91 -35 -63 0 -218 69 -214 95 1 6 25 13 54 16 46 5 57 2 86 -19 68 -52 161 -38 287 43 38 25 73 45 77 45 4 0 8 -12 8 -27z m1056 -85 c-3 -50 -6 -176 -6 -280 0 -160 -2 -188 -15 -188 -8 0 -15 3 -15 8 0 4 -14 117 -30 252 -16 135 -30 250 -30 255 0 9 67 40 94 44 5 0 6 -38 2 -91z m-701 -118 c39 0 43 -3 48 -27 7 -35 -71 -188 -124 -245 -30 -32 -42 -38 -77 -38 -23 0 -42 1 -42 3 0 1 20 42 45 91 24 48 49 114 56 145 16 81 17 84 35 77 9 -3 35 -6 59 -6z m91 -115 c7 -28 -13 -180 -27 -205 -6 -10 -9 0 -9 30 -1 97 -32 92 -90 -14 -22 -41 -46 -79 -53 -84 -25 -19 -113 -42 -164 -42 -65 0 -69 15 -16 59 33 28 45 31 102 31 63 0 65 1 105 43 23 23 61 80 84 125 24 45 47 82 52 82 5 0 12 -11 16 -25z m-1346 -64 c26 -22 81 -60 123 -86 124 -75 142 -119 61 -145 -53 -18 -121 -8 -200 29 -56 26 -88 51 -157 121 -47 48 -83 91 -80 94 3 2 17 -9 30 -25 21 -25 32 -30 62 -27 30 3 39 9 54 41 24 48 48 48 107 -2z m-375 -1 c12 -12 39 -22 62 -24 48 -4 74 -22 153 -109 l58 -63 -57 6 c-31 3 -94 19 -141 34 -47 16 -90 30 -97 32 -7 2 -15 15 -19 29 -7 27 3 115 13 115 4 0 16 -9 28 -20z" fill="#ffffff"/>
</g>
</svg>